<svg width="14" height="20" viewBox="0 0 14 20" fill="none" xmlns="http://www.w3.org/2000/svg">
<rect width="14" height="20" fill="#F2F2F2"/>
<g id="Mobile - Dark">
<rect width="375" height="777" transform="translate(-48 -523)" fill="#141D2F"/>
<g id="Group 9">
<rect id="Rectangle Copy" x="-24" y="-342" width="327" height="517" rx="15" fill="#1E2A47"/>
<g id="Group 8">
<g id="Group 16" clip-path="url(#clip0_0_1)">
<g id="003-pin">
<path id="Shape" fill-rule="evenodd" clip-rule="evenodd" d="M7.03013 0.00158203C9.42758 0.0504882 11.5835 1.33021 12.7973 3.4249C14.038 5.56599 14.072 8.13786 12.8882 10.3047L7.92872 19.3823L7.92196 19.3943C7.7038 19.7736 7.3129 20 6.87634 20C6.43974 20 6.04884 19.7736 5.83064 19.3943L5.82388 19.3823L0.86439 10.3047C-0.319437 8.13786 -0.285492 5.56599 0.95521 3.4249C2.16904 1.33021 4.32497 0.0504882 6.72239 0.00158203C6.82477 -0.000527343 6.92778 -0.000527343 7.03013 0.00158203ZM4.06376 6.25001C4.06376 7.80083 5.32544 9.06251 6.87626 9.06251C8.42712 9.06251 9.68876 7.80083 9.68876 6.25001C9.68876 4.69919 8.42708 3.43752 6.87626 3.43752C5.32544 3.43752 4.06376 4.69919 4.06376 6.25001Z" fill="white"/>
</g>
</g>
</g>
</g>
</g>
<defs>
<clipPath id="clip0_0_1">
<rect width="137" height="20" fill="white"/>
</clipPath>
</defs>
</svg>
